<svg width="22" height="22" viewBox="0 0 22 22" fill="none" xmlns="http://www.w3.org/2000/svg">
<path d="M10.8734 2.94495C11.0536 2.94495 11.2265 3.01655 11.3539 3.14399C11.4814 3.27144 11.553 3.4443 11.553 3.62454C11.553 3.80477 11.4814 3.97763 11.3539 4.10508C11.2265 4.23253 11.0536 4.30413 10.8734 4.30413C9.13107 4.30413 7.46012 4.99625 6.22813 6.22825C4.99613 7.46024 4.304 9.13119 4.304 10.8735C4.304 12.6158 4.99613 14.2867 6.22813 15.5187C7.46012 16.7507 9.13107 17.4429 10.8734 17.4429C11.0536 17.4429 11.2265 17.5145 11.3539 17.6419C11.4814 17.7694 11.553 17.9422 11.553 18.1224C11.553 18.3027 11.4814 18.4755 11.3539 18.603C11.2265 18.7304 11.0536 18.802 10.8734 18.802C8.77059 18.802 6.75393 17.9667 5.26704 16.4798C3.78015 14.9929 2.94482 12.9763 2.94482 10.8735C2.94482 8.77071 3.78015 6.75405 5.26704 5.26716C6.75393 3.78027 8.77059 2.94495 10.8734 2.94495Z" fill="#83858A"/>
<path d="M14.9238 8.63531C14.8037 8.50649 14.7384 8.33609 14.7415 8.16003C14.7446 7.98397 14.8159 7.81599 14.9404 7.69148C15.0649 7.56697 15.2329 7.49564 15.409 7.49254C15.585 7.48943 15.7554 7.55478 15.8843 7.67483L18.6026 10.3932C18.7299 10.5206 18.8014 10.6933 18.8014 10.8734C18.8014 11.0535 18.7299 11.2262 18.6026 11.3537L15.8843 14.072C15.822 14.1388 15.747 14.1924 15.6637 14.2295C15.5803 14.2666 15.4903 14.2866 15.3991 14.2882C15.3078 14.2898 15.2172 14.273 15.1325 14.2389C15.0479 14.2047 14.9711 14.1538 14.9065 14.0893C14.842 14.0247 14.7911 13.9479 14.7569 13.8633C14.7228 13.7786 14.706 13.688 14.7076 13.5968C14.7092 13.5055 14.7292 13.4155 14.7663 13.3321C14.8035 13.2488 14.857 13.1738 14.9238 13.1115L16.4823 11.553H9.06118C8.88094 11.553 8.70809 11.4814 8.58064 11.354C8.45319 11.2265 8.38159 11.0537 8.38159 10.8734C8.38159 10.6932 8.45319 10.5203 8.58064 10.3929C8.70809 10.2654 8.88094 10.1938 9.06118 10.1938H16.4823L14.9238 8.63531Z" fill="#83858A"/>
</svg>
