<svg width="22" height="22" viewBox="0 0 22 22" fill="none" xmlns="http://www.w3.org/2000/svg">
<path d="M6.7959 12.2327H12.2326V13.5918H6.7959V12.2327ZM6.7959 8.83472H14.951V10.1939H6.7959V8.83472ZM6.7959 15.6306H10.1938V16.9898H6.7959V15.6306Z" fill="black"/>
<path d="M16.9897 3.3979H14.951V2.71831C14.951 2.35783 14.8078 2.01212 14.5529 1.75723C14.298 1.50233 13.9523 1.35913 13.5918 1.35913H8.15508C7.7946 1.35913 7.44889 1.50233 7.19399 1.75723C6.9391 2.01212 6.7959 2.35783 6.7959 2.71831V3.3979H4.75713C4.39665 3.3979 4.05094 3.5411 3.79604 3.79599C3.54115 4.05089 3.39795 4.3966 3.39795 4.75708V19.0285C3.39795 19.3889 3.54115 19.7347 3.79604 19.9895C4.05094 20.2444 4.39665 20.3876 4.75713 20.3876H16.9897C17.3502 20.3876 17.6959 20.2444 17.9508 19.9895C18.2057 19.7347 18.3489 19.3889 18.3489 19.0285V4.75708C18.3489 4.3966 18.2057 4.05089 17.9508 3.79599C17.6959 3.5411 17.3502 3.3979 16.9897 3.3979ZM8.15508 2.71831H13.5918V5.43667H8.15508V2.71831ZM16.9897 19.0285H4.75713V4.75708H6.7959V6.79585H14.951V4.75708H16.9897V19.0285Z" fill="black"/>
</svg>
