<svg width="35" height="35" viewBox="0 0 35 35" fill="none" xmlns="http://www.w3.org/2000/svg">
<path d="M5.46875 20.7812C4.59851 20.7813 3.76391 21.127 3.14856 21.7423C2.5332 22.3577 2.1875 23.1923 2.1875 24.0625V24.8281C2.1875 27.6828 3.5 29.75 5.58687 31.0472C7.61031 32.305 10.3031 32.8125 13.125 32.8125C15.9622 32.8125 18.655 32.3072 20.6762 31.0472C22.7631 29.75 24.0625 27.6784 24.0625 24.8281V24.0625C24.0625 23.1923 23.7168 22.3577 23.1014 21.7423C22.4861 21.127 21.6515 20.7813 20.7812 20.7812H5.46875Z" fill="url(#paint0_radial_193_100)"/>
<path d="M5.46875 20.7812C4.59851 20.7813 3.76391 21.127 3.14856 21.7423C2.5332 22.3577 2.1875 23.1923 2.1875 24.0625V24.8281C2.1875 27.6828 3.5 29.75 5.58687 31.0472C7.61031 32.305 10.3031 32.8125 13.125 32.8125C15.9622 32.8125 18.655 32.3072 20.6762 31.0472C22.7631 29.75 24.0625 27.6784 24.0625 24.8281V24.0625C24.0625 23.1923 23.7168 22.3577 23.1014 21.7423C22.4861 21.127 21.6515 20.7813 20.7812 20.7812H5.46875Z" fill="url(#paint1_linear_193_100)"/>
<path d="M5.46875 20.7812C4.59851 20.7813 3.76391 21.127 3.14856 21.7423C2.5332 22.3577 2.1875 23.1923 2.1875 24.0625V24.8281C2.1875 27.6828 3.5 29.75 5.58687 31.0472C7.61031 32.305 10.3031 32.8125 13.125 32.8125C15.9622 32.8125 18.655 32.3072 20.6762 31.0472C22.7631 29.75 24.0625 27.6784 24.0625 24.8281V24.0625C24.0625 23.1923 23.7168 22.3577 23.1014 21.7423C22.4861 21.127 21.6515 20.7813 20.7812 20.7812H5.46875Z" fill="url(#paint2_radial_193_100)"/>
<path d="M5.46875 20.7812C4.59851 20.7813 3.76391 21.127 3.14856 21.7423C2.5332 22.3577 2.1875 23.1923 2.1875 24.0625V24.8281C2.1875 27.6828 3.5 29.75 5.58687 31.0472C7.61031 32.305 10.3031 32.8125 13.125 32.8125C15.9622 32.8125 18.655 32.3072 20.6762 31.0472C22.7631 29.75 24.0625 27.6784 24.0625 24.8281V24.0625C24.0625 23.1923 23.7168 22.3577 23.1014 21.7423C22.4861 21.127 21.6515 20.7813 20.7812 20.7812H5.46875Z" fill="url(#paint3_radial_193_100)"/>
<path d="M5.46875 20.7812C4.59851 20.7813 3.76391 21.127 3.14856 21.7423C2.5332 22.3577 2.1875 23.1923 2.1875 24.0625V24.8281C2.1875 27.6828 3.5 29.75 5.58687 31.0472C7.61031 32.305 10.3031 32.8125 13.125 32.8125C15.9622 32.8125 18.655 32.3072 20.6762 31.0472C22.7631 29.75 24.0625 27.6784 24.0625 24.8281V24.0625C24.0625 23.1923 23.7168 22.3577 23.1014 21.7423C22.4861 21.127 21.6515 20.7813 20.7812 20.7812H5.46875Z" fill="url(#paint4_radial_193_100)"/>
<path d="M14.2188 3.28125C14.2188 2.99117 14.1035 2.71297 13.8984 2.50785C13.6933 2.30273 13.4151 2.1875 13.125 2.1875C12.8349 2.1875 12.5567 2.30273 12.3516 2.50785C12.1465 2.71297 12.0312 2.99117 12.0312 3.28125V5.46875H14.2188V3.28125Z" fill="url(#paint5_linear_193_100)"/>
<path d="M18.5938 4.375C19.464 4.375 20.2986 4.7207 20.9139 5.33606C21.5293 5.95141 21.875 6.78601 21.875 7.65625V14.2188C21.875 15.089 21.5293 15.9236 20.9139 16.5389C20.2986 17.1543 19.464 17.5 18.5938 17.5H7.65625C6.78601 17.5 5.95141 17.1543 5.33606 16.5389C4.7207 15.9236 4.375 15.089 4.375 14.2188V7.65625C4.375 6.78601 4.7207 5.95141 5.33606 5.33606C5.95141 4.7207 6.78601 4.375 7.65625 4.375H18.5938Z" fill="url(#paint6_radial_193_100)"/>
<path d="M16.4062 9.29688C15.9711 9.29688 15.5538 9.46973 15.2462 9.7774C14.9385 10.0851 14.7656 10.5024 14.7656 10.9375C14.7656 11.3726 14.9385 11.7899 15.2462 12.0976C15.5538 12.4053 15.9711 12.5781 16.4062 12.5781C16.8414 12.5781 17.2587 12.4053 17.5663 12.0976C17.874 11.7899 18.0469 11.3726 18.0469 10.9375C18.0469 10.5024 17.874 10.0851 17.5663 9.7774C17.2587 9.46973 16.8414 9.29688 16.4062 9.29688Z" fill="url(#paint7_linear_193_100)"/>
<path d="M8.20312 10.9375C8.20312 10.5024 8.37598 10.0851 8.68365 9.7774C8.99133 9.46973 9.40863 9.29688 9.84375 9.29688C10.2789 9.29688 10.6962 9.46973 11.0038 9.7774C11.3115 10.0851 11.4844 10.5024 11.4844 10.9375C11.4844 11.3726 11.3115 11.7899 11.0038 12.0976C10.6962 12.4053 10.2789 12.5781 9.84375 12.5781C9.40863 12.5781 8.99133 12.4053 8.68365 12.0976C8.37598 11.7899 8.20312 11.3726 8.20312 10.9375Z" fill="url(#paint8_linear_193_100)"/>
<path d="M34.5253 28.9034L32.8519 28.3609C32.3428 28.1917 31.8802 27.9064 31.5005 27.5275C31.1208 27.1486 30.8346 26.6865 30.6644 26.1778L30.1219 24.5044C30.0766 24.3751 29.9923 24.2632 29.8806 24.184C29.7689 24.1048 29.6353 24.0623 29.4984 24.0623C29.3615 24.0623 29.228 24.1048 29.1163 24.184C29.0046 24.2632 28.9203 24.3751 28.875 24.5044L28.3281 26.1778C28.1617 26.6825 27.8811 27.1421 27.5081 27.5207C27.1352 27.8993 26.6799 28.1869 26.1778 28.3609L24.5044 28.9034C24.3751 28.9487 24.2632 29.033 24.184 29.1447C24.1048 29.2564 24.0623 29.3899 24.0623 29.5269C24.0623 29.6638 24.1048 29.7973 24.184 29.909C24.2632 30.0207 24.3751 30.105 24.5044 30.1503L26.1778 30.695C26.6878 30.865 27.151 31.1517 27.5308 31.5322C27.9105 31.9127 28.1963 32.3766 28.3653 32.8869L28.9078 34.5581C28.9531 34.6873 29.0374 34.7993 29.1491 34.8785C29.2608 34.9577 29.3943 35.0002 29.5312 35.0002C29.6682 35.0002 29.8017 34.9577 29.9134 34.8785C30.0251 34.7993 30.1094 34.6873 30.1547 34.5581L30.6994 32.8869C30.8691 32.378 31.1549 31.9156 31.5342 31.5363C31.9134 31.1571 32.3758 30.8712 32.8847 30.7015L34.5581 30.159C34.6873 30.1138 34.7993 30.0294 34.8785 29.9178C34.9577 29.8061 35.0002 29.6725 35.0002 29.5356C35.0002 29.3987 34.9577 29.2652 34.8785 29.1535C34.7993 29.0418 34.6873 28.9575 34.5581 28.9122L34.5253 28.9034Z" fill="url(#paint9_linear_193_100)"/>
<path d="M23.7956 11.5543L24.5568 13.8971C24.7929 14.6097 25.1924 15.2572 25.7234 15.7878C26.2544 16.3184 26.9022 16.7175 27.615 16.9531L29.96 17.7143L30.0059 17.7274C30.1866 17.791 30.3431 17.9092 30.4538 18.0655C30.5645 18.2218 30.624 18.4087 30.624 18.6002C30.624 18.7918 30.5645 18.9787 30.4538 19.135C30.3431 19.2913 30.1866 19.4094 30.0059 19.4731L27.6631 20.2343C26.9499 20.4696 26.3017 20.8685 25.7703 21.3991C25.2389 21.9298 24.8391 22.5774 24.6028 23.2902L23.8415 25.6309C23.7779 25.8116 23.6598 25.9681 23.5035 26.0788C23.3471 26.1895 23.1603 26.2489 22.9687 26.2489C22.7771 26.2489 22.5903 26.1895 22.434 26.0788C22.2776 25.9681 22.1595 25.8116 22.0959 25.6309L21.3346 23.2902C21.0611 22.4615 20.5673 21.7228 19.9062 21.1531C19.4281 20.738 18.8728 20.4213 18.2721 20.2212L15.9271 19.4599C15.7465 19.3963 15.59 19.2782 15.4792 19.1219C15.3685 18.9655 15.3091 18.7787 15.3091 18.5871C15.3091 18.3956 15.3685 18.2087 15.4792 18.0524C15.59 17.896 15.7465 17.7779 15.9271 17.7143L18.2721 16.9531C18.9764 16.7114 19.615 16.3096 20.1377 15.7794C20.6604 15.2491 21.0529 14.6048 21.2843 13.8971L22.0456 11.5565C22.1087 11.375 22.2268 11.2177 22.3834 11.1064C22.54 10.9951 22.7274 10.9353 22.9195 10.9353C23.1116 10.9353 23.299 10.9951 23.4556 11.1064C23.6122 11.2177 23.7302 11.375 23.7934 11.5565" fill="url(#paint10_linear_193_100)"/>
<defs>
<radialGradient id="paint0_radial_193_100" cx="0" cy="0" r="1" gradientUnits="userSpaceOnUse" gradientTransform="translate(-2.86125 17.0778) rotate(32.84) scale(31.2305 51.9225)">
<stop stop-color="#F08AF4"/>
<stop offset="0.535" stop-color="#9C6CFE"/>
<stop offset="1" stop-color="#4E44DB"/>
</radialGradient>
<linearGradient id="paint1_linear_193_100" x1="13.125" y1="19.3484" x2="19.0291" y2="39.4056" gradientUnits="userSpaceOnUse">
<stop stop-color="#885EDB" stop-opacity="0"/>
<stop offset="1" stop-color="#E362F8"/>
</linearGradient>
<radialGradient id="paint2_radial_193_100" cx="0" cy="0" r="1" gradientUnits="userSpaceOnUse" gradientTransform="translate(22.9688 24.0625) rotate(-90) scale(5.46875 2.82242)">
<stop stop-color="#4E44DB"/>
<stop offset="1" stop-color="#4E44DB" stop-opacity="0"/>
</radialGradient>
<radialGradient id="paint3_radial_193_100" cx="0" cy="0" r="1" gradientUnits="userSpaceOnUse" gradientTransform="translate(21.875 21.875) rotate(-135) scale(6.18718 4.61938)">
<stop stop-color="#4E44DB"/>
<stop offset="1" stop-color="#4E44DB" stop-opacity="0"/>
</radialGradient>
<radialGradient id="paint4_radial_193_100" cx="0" cy="0" r="1" gradientUnits="userSpaceOnUse" gradientTransform="translate(22.9687 20.7812) rotate(180) scale(9.84375 4.24854)">
<stop stop-color="#4E44DB"/>
<stop offset="1" stop-color="#4E44DB" stop-opacity="0"/>
</radialGradient>
<linearGradient id="paint5_linear_193_100" x1="11.9809" y1="2.1875" x2="14.2887" y2="4.87594" gradientUnits="userSpaceOnUse">
<stop stop-color="#8B52F4"/>
<stop offset="1" stop-color="#3D35B1"/>
</linearGradient>
<radialGradient id="paint6_radial_193_100" cx="0" cy="0" r="1" gradientUnits="userSpaceOnUse" gradientTransform="translate(0.480444 -1.81614) rotate(45) scale(29.4814 57.5487)">
<stop stop-color="#F08AF4"/>
<stop offset="0.535" stop-color="#9C6CFE"/>
<stop offset="1" stop-color="#4E44DB"/>
</radialGradient>
<linearGradient id="paint7_linear_193_100" x1="15.5444" y1="9.42375" x2="18.0316" y2="13.7156" gradientUnits="userSpaceOnUse">
<stop stop-color="#FDFDFD"/>
<stop offset="1" stop-color="#F9DCFA"/>
</linearGradient>
<linearGradient id="paint8_linear_193_100" x1="8.98188" y1="9.42375" x2="11.4691" y2="13.7156" gradientUnits="userSpaceOnUse">
<stop stop-color="#FDFDFD"/>
<stop offset="1" stop-color="#F9DCFA"/>
</linearGradient>
<linearGradient id="paint9_linear_193_100" x1="26.25" y1="25.1562" x2="32.8169" y2="33.904" gradientUnits="userSpaceOnUse">
<stop stop-color="#FFA43D"/>
<stop offset="1" stop-color="#FB5937"/>
</linearGradient>
<linearGradient id="paint10_linear_193_100" x1="27.3437" y1="24.0624" x2="16.6053" y2="11.7162" gradientUnits="userSpaceOnUse">
<stop stop-color="#FF8A69"/>
<stop offset="1" stop-color="#FFCD0F"/>
</linearGradient>
</defs>
</svg>
