<svg width="35" height="35" viewBox="0 0 35 35" fill="none" xmlns="http://www.w3.org/2000/svg">
<path d="M8.75 6.01562C8.75 3.9025 10.465 2.1875 12.5781 2.1875H22.4219C24.535 2.1875 26.25 3.9025 26.25 6.01562V28.9844C26.25 29.9997 25.8467 30.9734 25.1288 31.6913C24.4109 32.4092 23.4372 32.8125 22.4219 32.8125H12.5781C11.5628 32.8125 10.5891 32.4092 9.87123 31.6913C9.15332 30.9734 8.75 29.9997 8.75 28.9844V6.01562Z" fill="url(#paint0_radial_193_85)"/>
<path d="M15.3125 26.25C15.0224 26.25 14.7442 26.3652 14.5391 26.5704C14.334 26.7755 14.2188 27.0537 14.2188 27.3438C14.2188 27.6338 14.334 27.912 14.5391 28.1171C14.7442 28.3223 15.0224 28.4375 15.3125 28.4375H19.6875C19.9776 28.4375 20.2558 28.3223 20.4609 28.1171C20.666 27.912 20.7812 27.6338 20.7812 27.3438C20.7812 27.0537 20.666 26.7755 20.4609 26.5704C20.2558 26.3652 19.9776 26.25 19.6875 26.25H15.3125Z" fill="url(#paint1_radial_193_85)"/>
<defs>
<radialGradient id="paint0_radial_193_85" cx="0" cy="0" r="1" gradientUnits="userSpaceOnUse" gradientTransform="translate(8.75 1.23156) rotate(63.9254) scale(38.57 71.4886)">
<stop stop-color="#CB7DF8"/>
<stop offset="0.412" stop-color="#9C6CFE"/>
<stop offset="1" stop-color="#4E44DB"/>
</radialGradient>
<radialGradient id="paint1_radial_193_85" cx="0" cy="0" r="1" gradientUnits="userSpaceOnUse" gradientTransform="translate(13.1942 26.3957) rotate(40.863) scale(11.4794 13.4948)">
<stop stop-color="#DECBFF"/>
<stop offset="1" stop-color="#D1D1FF"/>
</radialGradient>
</defs>
</svg>
